<?xml version="1.0" encoding="utf-8"?>
<!-- Generator: Adobe Illustrator 16.0.0, SVG Export Plug-In . SVG Version: 6.00 Build 0)  -->
<!DOCTYPE svg PUBLIC "-//W3C//DTD SVG 1.1//EN" "http://www.w3.org/Graphics/SVG/1.1/DTD/svg11.dtd">
<svg version="1.1" id="Layer_2" xmlns="http://www.w3.org/2000/svg" xmlns:xlink="http://www.w3.org/1999/xlink" x="0px" y="0px"
	 width="504px" height="72px" viewBox="0 0 504 72" style="enable-background:new 0 0 504 72;" xml:space="preserve">
<g>
	<path style="fill:#FFFFFF;" d="M66.7,17.7V14h3.6V9h4.3v5h4.8v3.7h-4.8v7.6c0,1.7,0.5,2.8,2.4,2.8c0.8,0,1.8-0.1,2.3-0.5v3.6
		c-0.9,0.4-2.4,0.6-3.4,0.6c-4.6,0-5.7-2.1-5.7-6.1v-7.9H66.7z"/>
	<path style="fill:#FFFFFF;" d="M87.1,16.4L87.1,16.4c0.8-1.4,2.5-2.8,5.1-2.8c4.6,0,6.3,3.3,6.3,6.8v10.9h-4.3v-8.7
		c0-1.9-0.1-5.1-3.2-5.1c-2.8,0-4,2.1-4,4.4v9.4h-4.3V4.1h4.3V16.4z"/>
	<path style="fill:#FFFFFF;" d="M105.1,24.2c0.3,2.6,2.2,4.1,4.6,4.1c2.2,0,3.6-1,4.6-2.3l3.1,2.3c-2,2.5-4.6,3.5-7.3,3.5
		c-5.2,0-9.4-3.6-9.4-9.1c0-5.4,4.2-9.1,9.4-9.1c4.8,0,8.1,3.4,8.1,9.4v1.2H105.1z M113.9,20.9c0-2.5-1.7-4.1-4.4-4.1
		c-2.6,0-4.1,1.6-4.5,4.1H113.9z"/>
	<path style="fill:#FFFFFF;" d="M132.8,24.2c0.3,2.6,2.2,4.1,4.6,4.1c2.2,0,3.6-1,4.6-2.3l3.1,2.3c-2,2.5-4.6,3.5-7.3,3.5
		c-5.2,0-9.4-3.6-9.4-9.1c0-5.4,4.2-9.1,9.4-9.1c4.8,0,8.1,3.4,8.1,9.4v1.2H132.8z M141.6,20.9c0-2.5-1.7-4.1-4.4-4.1
		c-2.6,0-4.1,1.6-4.5,4.1H141.6z"/>
	<path style="fill:#FFFFFF;" d="M145.8,14h4.7l4.6,12.1h0.1l4.6-12.1h4.4l-6.8,17.3h-4.6L145.8,14z"/>
	<path style="fill:#FFFFFF;" d="M168.5,24.2c0.3,2.6,2.2,4.1,4.6,4.1c2.2,0,3.6-1,4.6-2.3l3.1,2.3c-2,2.5-4.6,3.5-7.3,3.5
		c-5.2,0-9.4-3.6-9.4-9.1c0-5.4,4.2-9.1,9.4-9.1c4.8,0,8.1,3.4,8.1,9.4v1.2H168.5z M177.3,20.9c0-2.5-1.7-4.1-4.4-4.1
		c-2.6,0-4.1,1.6-4.5,4.1H177.3z"/>
	<path style="fill:#FFFFFF;" d="M184.4,14h4.3v2.7h0.1c0.9-2,2.8-3.2,5.1-3.2c0.5,0,1,0.1,1.5,0.3V18c-0.7-0.2-1.4-0.3-2.1-0.3
		c-4.1,0-4.6,3.4-4.6,4.4v9.3h-4.3V14z"/>
	<path style="fill:#FFFFFF;" d="M215.1,14v15.7c0,6.2-3,10.2-9.8,10.2c-3.2,0-6.1-0.7-8.6-2.8l2.6-3.5c1.7,1.6,3.5,2.5,5.9,2.5
		c4.2,0,5.5-2.4,5.5-5.8V29h-0.1c-1.3,1.7-3.5,2.5-5.7,2.5c-5.2,0-8.6-4-8.6-8.9c0-5.1,3.2-9.1,8.5-9.1c2.4,0,4.7,0.9,5.9,3h0.1V14
		H215.1z M200.8,22.6c0,2.7,2.2,5,5.1,5c3.2,0,5.1-2.2,5.1-5.1c0-3-2-5.1-5.1-5.1C202.9,17.5,200.8,19.6,200.8,22.6z"/>
	<path style="fill:#FFFFFF;" d="M217.8,14h4.3v2.7h0.1c0.9-2,2.8-3.2,5.1-3.2c0.5,0,1,0.1,1.5,0.3V18c-0.7-0.2-1.4-0.3-2.1-0.3
		c-4.1,0-4.6,3.4-4.6,4.4v9.3h-4.3V14z"/>
	<path style="fill:#FFFFFF;" d="M234.2,24.2c0.3,2.6,2.2,4.1,4.6,4.1c2.2,0,3.6-1,4.6-2.3l3.1,2.3c-2,2.5-4.6,3.5-7.3,3.5
		c-5.2,0-9.4-3.6-9.4-9.1c0-5.4,4.2-9.1,9.4-9.1c4.8,0,8.1,3.4,8.1,9.4v1.2H234.2z M243,20.9c0-2.5-1.7-4.1-4.4-4.1
		c-2.6,0-4.1,1.6-4.5,4.1H243z"/>
	<path style="fill:#FFFFFF;" d="M253.8,24.2c0.3,2.6,2.2,4.1,4.6,4.1c2.2,0,3.6-1,4.6-2.3l3.1,2.3c-2,2.5-4.6,3.5-7.3,3.5
		c-5.2,0-9.4-3.6-9.4-9.1c0-5.4,4.2-9.1,9.4-9.1c4.8,0,8.1,3.4,8.1,9.4v1.2H253.8z M262.6,20.9c0-2.5-1.7-4.1-4.4-4.1
		c-2.6,0-4.1,1.6-4.5,4.1H262.6z"/>
	<path style="fill:#FFFFFF;" d="M269.6,14h4.1v2.8h0.1c0.8-1.7,2.4-3.2,5.3-3.2c4.6,0,6.3,3.3,6.3,6.8v10.9h-4.3v-8.7
		c0-1.9-0.1-5.1-3.2-5.1c-2.8,0-4,2.1-4,4.4v9.4h-4.3V14z"/>
	<path style="fill:#FFFFFF;" d="M306.5,18.8c-0.8-1.2-1.9-1.8-3.4-1.8c-1.2,0-2.5,0.5-2.5,1.8c0,3.1,9.3,0.6,9.3,7.3
		c0,4.1-3.9,5.5-7.5,5.5c-2.7,0-5-0.7-6.7-2.7l2.9-2.7c1.1,1.2,2.3,2.1,4.1,2.1c1.3,0,2.9-0.6,2.9-2c0-3.6-9.3-0.8-9.3-7.3
		c0-3.9,3.5-5.6,6.9-5.6c2.3,0,4.8,0.7,6.2,2.6L306.5,18.8z"/>
	<path style="fill:#FFFFFF;" d="M311.3,17.7V14h3.6V9h4.3v5h4.8v3.7h-4.8v7.6c0,1.7,0.5,2.8,2.4,2.8c0.8,0,1.8-0.1,2.3-0.5v3.6
		c-0.9,0.4-2.4,0.6-3.4,0.6c-4.6,0-5.7-2.1-5.7-6.1v-7.9H311.3z"/>
	<path style="fill:#FFFFFF;" d="M338.1,28.9H338c-1.2,1.9-3.2,2.8-5.5,2.8c-3.2,0-6.3-1.8-6.3-5.2c0-5.6,6.6-6,10.9-6h1.1v-0.5
		c0-2.1-1.7-3.2-4-3.2c-1.8,0-3.5,0.7-4.6,1.8l-2.3-2.3c1.9-1.9,4.6-2.8,7.3-2.8c7.4,0,7.4,5.3,7.4,7.8v9.9h-3.9V28.9z M337.9,23.6
		H337c-2.4,0-6.5,0.2-6.5,2.7c0,1.6,1.6,2.3,3,2.3c3,0,4.4-1.5,4.4-4V23.6z"/>
	<path style="fill:#FFFFFF;" d="M344.3,17.7V14h3.6V9h4.3v5h4.8v3.7h-4.8v7.6c0,1.7,0.5,2.8,2.4,2.8c0.8,0,1.8-0.1,2.3-0.5v3.6
		c-0.9,0.4-2.4,0.6-3.4,0.6c-4.6,0-5.7-2.1-5.7-6.1v-7.9H344.3z"/>
	<path style="fill:#FFFFFF;" d="M363.8,24.2c0.3,2.6,2.2,4.1,4.6,4.1c2.2,0,3.6-1,4.6-2.3l3.1,2.3c-2,2.5-4.6,3.5-7.3,3.5
		c-5.2,0-9.4-3.6-9.4-9.1c0-5.4,4.2-9.1,9.4-9.1c4.8,0,8.1,3.4,8.1,9.4v1.2H363.8z M372.6,20.9c0-2.5-1.7-4.1-4.4-4.1
		c-2.6,0-4.1,1.6-4.5,4.1H372.6z"/>
	<path style="fill:#FFFFFF;" d="M399.8,19.2c-1-1-2.1-1.7-3.3-1.7c-3.2,0-5.1,2.5-5.1,5.2c0,2.7,1.9,5.2,5.1,5.2
		c1.3,0,2.6-0.6,3.3-1.6l2.9,3.1c-1.8,1.8-4.7,2.4-6.2,2.4c-5.2,0-9.4-3.6-9.4-9.1c0-5.4,4.2-9.1,9.4-9.1c2.2,0,4.6,0.8,6.3,2.6
		L399.8,19.2z"/>
	<path style="fill:#FFFFFF;" d="M413.5,13.6c5.2,0,9.4,3.6,9.4,9.1c0,5.4-4.2,9.1-9.4,9.1c-5.2,0-9.4-3.6-9.4-9.1
		C404.1,17.2,408.3,13.6,413.5,13.6z M413.5,27.8c3.2,0,5.1-2.5,5.1-5.2c0-2.7-1.9-5.2-5.1-5.2s-5.1,2.5-5.1,5.2
		C408.5,25.4,410.4,27.8,413.5,27.8z"/>
	<path style="fill:#FFFFFF;" d="M425.3,4.1h4.3v27.2h-4.3V4.1z"/>
	<path style="fill:#FFFFFF;" d="M434.5,4.1h4.3v27.2h-4.3V4.1z"/>
	<path style="fill:#FFFFFF;" d="M446,24.2c0.3,2.6,2.2,4.1,4.6,4.1c2.2,0,3.6-1,4.6-2.3l3.1,2.3c-2,2.5-4.6,3.5-7.3,3.5
		c-5.2,0-9.4-3.6-9.4-9.1c0-5.4,4.2-9.1,9.4-9.1c4.8,0,8.1,3.4,8.1,9.4v1.2H446z M454.8,20.9c0-2.5-1.7-4.1-4.4-4.1
		c-2.6,0-4.1,1.6-4.5,4.1H454.8z"/>
	<path style="fill:#FFFFFF;" d="M479.8,14v15.7c0,6.2-3,10.2-9.8,10.2c-3.2,0-6.1-0.7-8.6-2.8l2.6-3.5c1.7,1.6,3.5,2.5,5.9,2.5
		c4.2,0,5.5-2.4,5.5-5.8V29h-0.1c-1.3,1.7-3.5,2.5-5.7,2.5c-5.2,0-8.6-4-8.6-8.9c0-5.1,3.2-9.1,8.5-9.1c2.4,0,4.7,0.9,5.9,3h0.1V14
		H479.8z M465.5,22.6c0,2.7,2.2,5,5.1,5c3.2,0,5.1-2.2,5.1-5.1c0-3-2-5.1-5.1-5.1C467.5,17.5,465.5,19.6,465.5,22.6z"/>
	<path style="fill:#FFFFFF;" d="M486.4,24.2c0.3,2.6,2.2,4.1,4.6,4.1c2.2,0,3.6-1,4.6-2.3l3.1,2.3c-2,2.5-4.6,3.5-7.3,3.5
		c-5.2,0-9.4-3.6-9.4-9.1c0-5.4,4.2-9.1,9.4-9.1c4.8,0,8.1,3.4,8.1,9.4v1.2H486.4z M495.3,20.9c0-2.5-1.7-4.1-4.4-4.1
		c-2.6,0-4.1,1.6-4.5,4.1H495.3z"/>
</g>
<g>
	<path style="fill:#FFFFFF;" d="M75.5,45.5c4.4,0,7.8,3.4,7.8,7.7c0,4.3-3.4,7.7-7.8,7.7c-4.4,0-7.8-3.4-7.8-7.7
		C67.7,49,71.1,45.5,75.5,45.5z M75.5,58.4c3,0,4.8-2.1,4.8-5.1s-1.9-5.1-4.8-5.1s-4.8,2.1-4.8,5.1S72.5,58.4,75.5,58.4z"/>
	<path style="fill:#FFFFFF;" d="M85.4,37.2h2.8v23.4h-2.8V37.2z"/>
	<path style="fill:#FFFFFF;" d="M90.3,45.9h3.2l4.4,11.5h0.1l4.2-11.5h3l-7,17.9c-1,2.5-2,4.3-5,4.3c-0.8,0-1.7-0.1-2.5-0.4l0.3-2.5
		c0.5,0.2,1.1,0.3,1.7,0.3c1.8,0,2.3-1,2.9-2.4l0.9-2.3L90.3,45.9z"/>
	<path style="fill:#FFFFFF;" d="M107.2,45.9h2.6v2.3h0.1c0.3-0.9,2.1-2.7,4.7-2.7c2.2,0,3.7,0.9,4.6,2.7c1-1.8,2.9-2.7,4.7-2.7
		c4.5,0,5.6,3.2,5.6,6.5v8.6h-2.8v-8.2c0-2.2-0.5-4.3-3.2-4.3s-3.8,1.8-3.8,4.4v8h-2.8v-7.7c0-2.8-0.4-4.8-3.1-4.8
		c-2,0-3.8,1.5-3.8,4.8v7.6h-2.8V45.9z"/>
	<path style="fill:#FFFFFF;" d="M132.3,45.9h2.8V48h0.1c1.1-1.6,3.1-2.5,5.1-2.5c4.6,0,7.5,3.4,7.5,7.7c0,4.4-2.9,7.7-7.5,7.7
		c-2.1,0-4.1-1-5.1-2.5H135v10.9h-2.8V45.9z M135,53.3c0,3,1.9,5.1,4.8,5.1s4.8-2.1,4.8-5.1s-1.9-5.1-4.8-5.1S135,50.3,135,53.3z"/>
	<path style="fill:#FFFFFF;" d="M152,38.6c1.1,0,2,0.9,2,2s-0.9,2-2,2s-2-0.9-2-2S150.9,38.6,152,38.6z M150.6,45.9h2.8v14.7h-2.8
		V45.9z"/>
	<path style="fill:#FFFFFF;" d="M157.3,47.7c1.6-1.5,3.8-2.2,5.8-2.2c4.3,0,6.1,2.4,6.1,4.9V58c0,1,0,1.9,0.1,2.7h-2.5
		c-0.1-0.7-0.1-1.5-0.1-2.2h-0.1c-1.2,1.9-2.9,2.6-5.1,2.6c-2.7,0-5.1-1.5-5.1-4.4c0-3.8,3.6-5.1,8.1-5.1h2v-0.6
		c0-1.5-1.1-3.1-3.5-3.1c-2.1,0-3.2,0.9-4.2,1.7L157.3,47.7z M165.2,53.5c-2.6,0-5.9,0.5-5.9,2.8c0,1.7,1.2,2.4,3.2,2.4
		c3.1,0,4.2-2.3,4.2-4.3v-0.9H165.2z"/>
	<path style="fill:#FFFFFF;" d="M173.6,64.7h-2.5l2.1-7.6h3L173.6,64.7z"/>
	<path style="fill:#FFFFFF;" d="M177.9,45.9h3.1l3.3,11h0.1l3.5-11h2.9l3.7,11h0.1l3.2-11h2.9L196,60.6h-2.8l-3.9-11h-0.1l-3.5,11
		h-3L177.9,45.9z"/>
	<path style="fill:#FFFFFF;" d="M202.5,47.7c1.6-1.5,3.8-2.2,5.8-2.2c4.3,0,6.1,2.4,6.1,4.9V58c0,1,0,1.9,0.1,2.7h-2.5
		c-0.1-0.7-0.1-1.5-0.1-2.2h-0.1c-1.2,1.9-2.9,2.6-5.1,2.6c-2.7,0-5.1-1.5-5.1-4.4c0-3.8,3.6-5.1,8.1-5.1h2v-0.6
		c0-1.5-1.1-3.1-3.5-3.1c-2.1,0-3.2,0.9-4.2,1.7L202.5,47.7z M210.3,53.5c-2.6,0-5.9,0.5-5.9,2.8c0,1.7,1.2,2.4,3.2,2.4
		c3.1,0,4.2-2.3,4.2-4.3v-0.9H210.3z"/>
	<path style="fill:#FFFFFF;" d="M225.8,49.6c-0.7-0.8-1.6-1.5-3-1.5c-1.3,0-2.4,0.6-2.4,1.6c0,1.8,2.5,2,3.8,2.3
		c2.4,0.6,4.3,1.5,4.3,4.3c0,3.3-3,4.6-6,4.6c-2.4,0-4.2-0.6-5.7-2.6l2.1-1.7c0.9,0.9,2,1.7,3.6,1.7c1.4,0,3-0.6,3-1.9
		c0-1.7-2.3-2-3.5-2.3c-2.4-0.6-4.5-1.4-4.5-4.2c0-3.1,2.8-4.5,5.6-4.5c2,0,4,0.7,5,2.4L225.8,49.6z"/>
	<path style="fill:#FFFFFF;" d="M231.1,37.2h2.8v11h0.1c0.7-1.5,2.6-2.6,4.8-2.6c2.9,0,5.3,1.7,5.3,5.6v9.5h-2.8v-8.7
		c0-2.8-1.6-3.8-3.3-3.8c-2.3,0-4.1,1.5-4.1,4.9v7.6h-2.8V37.2z"/>
	<path style="fill:#FFFFFF;" d="M248.4,38.6c1.1,0,2,0.9,2,2s-0.9,2-2,2s-2-0.9-2-2S247.3,38.6,248.4,38.6z M247,45.9h2.8v14.7H247
		V45.9z"/>
	<path style="fill:#FFFFFF;" d="M252.7,45.9h2.8v2.3h0.1c0.7-1.5,2.6-2.6,4.8-2.6c2.9,0,5.3,1.7,5.3,5.6v9.5h-2.8v-8.7
		c0-2.8-1.6-3.8-3.3-3.8c-2.3,0-4.1,1.5-4.1,4.9v7.6h-2.8V45.9z"/>
	<path style="fill:#FFFFFF;" d="M283.9,60.5c0,4.4-3.2,7.6-8,7.6c-2.8,0-5.1-0.7-7.2-2.6l1.9-2.4c1.5,1.6,3.1,2.4,5.2,2.4
		c4.2,0,5.3-2.6,5.3-5.1v-2.2H281c-1.1,1.8-3.1,2.6-5.1,2.6c-4.3,0-7.5-3.3-7.5-7.5c0-4.3,2.9-7.7,7.5-7.7c2,0,4,0.9,5.1,2.5h0.1
		v-2.1h2.8V60.5z M271.4,53.3c0,3,1.9,4.9,4.8,4.9s4.8-2,4.8-4.9s-1.9-5.1-4.8-5.1S271.4,50.3,271.4,53.3z"/>
	<path style="fill:#FFFFFF;" d="M295.7,48.3h-4V55c0,1.6,0,3.4,2.1,3.4c0.7,0,1.4-0.1,2-0.4v2.5c-0.7,0.4-2,0.5-2.5,0.5
		c-4.3,0-4.4-2.6-4.4-5v-7.7h-3.2v-2.4h3.2v-4.1h2.8v4.1h4V48.3z"/>
	<path style="fill:#FFFFFF;" d="M305.3,45.5c4.4,0,7.8,3.4,7.8,7.7c0,4.3-3.4,7.7-7.8,7.7s-7.8-3.4-7.8-7.7
		C297.5,49,301,45.5,305.3,45.5z M305.3,58.4c3,0,4.8-2.1,4.8-5.1s-1.9-5.1-4.8-5.1s-4.8,2.1-4.8,5.1S302.4,58.4,305.3,58.4z"/>
	<path style="fill:#FFFFFF;" d="M315.9,45.9h2.8v2.3h0.1c0.7-1.5,2.6-2.6,4.8-2.6c2.9,0,5.3,1.7,5.3,5.6v9.5h-2.8v-8.7
		c0-2.8-1.6-3.8-3.3-3.8c-2.3,0-4.1,1.5-4.1,4.9v7.6h-2.8V45.9z"/>
</g>
<path style="fill:#FFFFFF;" d="M48.6,57.7C48.3,58,47.2,58,47,58.4c-0.1,0.2,0,0.4,0,0.5c-0.2,0.5-0.5,0.4-0.4,1.2
	c0.2,0.1,0.3,0.3,0.5,0.4h0.3c0.1-0.1,0.2-0.2,0.4-0.2c0.1,0.1,0.3,0.3,0.4,0.3c0.5,0.2,0.6-0.2,1-0.1c0.4,0.1,0.8,0.2,1.2,0.3
	c0.1,0,0.4,0.2,0.6,0.1c0.3-0.1,0.3-0.4,0.6-0.5c0.4-0.2,1.1-0.1,1.5-0.2c0.4-0.1,0.9,0.1,1.2,0.2c0.3,0,0.7,0,1-0.1
	c0.5,0.1,0.9,0.4,1.4,0.4v0h0c0-0.1,0-0.4,0-0.5c0.1-0.1,0.1-0.1,0.2-0.3c-0.1-0.1-0.3-0.3-0.4-0.4c-0.4-0.1-0.7,0-1-0.1
	c-0.3-0.1-0.5-0.2-0.8-0.3c-0.4-0.1-0.8,0.4-0.9,0.3c-0.2-0.1-0.1-0.2-0.4-0.2c-0.1-0.1-0.3,0-0.4,0c-0.1,0-0.5-0.1-0.6-0.2
	c-0.2-0.1-0.4-0.4-0.5-0.6c0-0.1,0-0.1,0-0.2C51.7,58.3,51.2,58,51,58c-0.1,0-0.2,0-0.3,0.1c-0.2,0-0.3,0-0.4,0.1
	c-0.2,0.1-0.4,0.4-0.8,0.3c-0.3-0.1-0.3-0.5-0.5-0.6C49,57.7,48.8,57.7,48.6,57.7 M11.7,49.2c-0.3,0.2-0.6,0.2-0.9,0.3
	c-0.2,0.1-0.2,0.3-0.4,0.4c-0.2,0.2-0.5,0-0.5,0.4c0.3,0.1,0.5,0.1,0.8,0.2c0.1,0,0.3,0.2,0.4,0.2c0.2,0.1,0.7-0.1,0.9-0.2
	c0.1-0.1,0.1-0.2,0.2-0.3c0-0.3-0.1-0.4-0.2-0.5c-0.1-0.2,0.1-0.4-0.2-0.5C11.9,49.2,11.8,49.2,11.7,49.2 M38.4,43.3
	c0,0.3-0.4,0.4-0.8,0.4C37.7,43.3,38.1,43.2,38.4,43.3 M37.1,42.1c-0.3,0.2-0.7,0-1,0.1c-0.5,0.1-1.1,0.2-1.5,0.4
	c-0.3,0.1-0.7,0.3-1,0.5c-0.3,0.2-0.4,0.5-0.6,0.8c0,0-0.7,0.4-0.8,0.4c-0.4,0.1-0.6-0.3-0.8-0.3h-0.8c-0.3,0.2-0.6-0.1-0.9,0
	c-0.4,0.1-0.9,0.1-1.2,0.3c-0.6,0.2-1.2,0.8-1.9,1c-0.1,0-0.3,0-0.4,0.1c-0.2,0.1-0.4,0.2-0.6,0.2c-0.2,0.1-0.4,0.1-0.6,0.2
	c-0.3,0.1-0.6,0.4-1,0.5c-0.2,0-0.4-0.1-0.7,0c-0.3,0.1-0.6,0.3-0.9,0.3c-0.2,0-0.4,0-0.6,0c-0.2,0-0.3,0-0.4,0.1
	c-0.3,0-0.5,0-0.8,0c-0.4,0.1-0.7,0.2-1,0.3c-0.4,0-0.8,0-1.2,0.1c-0.2,0.1-0.6,0.1-0.8,0.2c-0.2,0.1-0.4-0.1-0.7,0
	c-0.2,0.1-0.4,0.2-0.6,0.3c-0.5,0.2-1.1,0.2-1.5,0.4c-0.3,0.1-0.6,0.5-0.8,0.7c0,0.3,0,0.9,0.2,1.2c0.1,0.2,0.3,0.2,0.4,0.4
	c0.1,0.1,0.1,0.3,0.2,0.3c0.1,0.1,0.2,0,0.3,0.1c0.1,0.1,0,0.2,0.1,0.3c0.1,0.1,0.2,0,0.3,0.1c0.1,0,0.2,0.2,0.3,0.2
	c0.2,0.1,0.4,0.1,0.7,0.2c0.3,0.1,0.7,0.3,1,0.3c0.3,0.1,0.6-0.1,0.8-0.1c0.5-0.1,1.1,0.1,1.4,0.2c0.2,0,0.3,0,0.5,0
	c0.7,0.4,1.5,0.7,2.2,1.2c0.2,0.1,0.3,0.3,0.4,0.5c0.1,0.1,0.3,0.1,0.4,0.2c0.2,0.2,0.4,0.4,0.6,0.6c0.3,0.2,0.7,0.5,1,0.6
	c0.4,0.2,1.1,0.1,1.4,0h0.4c0.1,0,0.4-0.1,0.6-0.1h0.5c0.3-0.1,0.7-0.3,1.1-0.3c0.4-0.1,0.8,0.3,1,0.4c0.1,0.1,0.4,0.1,0.5,0.1
	c0.4,0.1,1.2,0,1.4-0.1c0.5-0.1,1,0.2,1.5,0.1c0.5-0.1,0.5-0.4,0.9-0.6c0.2-0.1,0.4-0.1,0.5-0.3c0.1-0.2,0-0.5,0.2-0.7
	c0.1-0.2,0.4-0.2,0.5-0.3c0.1-0.2-0.1-0.4,0.2-0.5c0.2,0.2,0.5,0.1,0.8,0.2c0.1,0,0.3,0.2,0.4,0.3c0.1,0.1,0.1,0.2,0.2,0.3
	c0.1,0.1,0.2,0,0.2,0.1v0.2c0,0.1,0.2,0.2,0.2,0.2c0.2,0.2,0.3,0.6,0.5,0.9c0,0.1,0.1,0.1,0.2,0.1c0.3,0.3,0.6,0.6,1,0.8
	c0.2,0.2,0.2,0.4,0.6,0.4c0,0,0.1,0,0.2-0.1c0.1,0,0.2-0.2,0.3-0.3c0.6,0,0.6,0.2,0.9,0.5c0.1,0.1,0.1,0.1,0.2,0.2
	c0.1,0.1,0.2,0.4,0.3,0.4c0.2,0.1,0.5-0.1,0.8,0c0.1,0,0.1,0.1,0.2,0.2c0.2,0.1,0.5,0.2,0.7,0.3c0.3,0.1,0.7,0,0.9,0
	c0.3,0.1,0.7,0.5,1,0.2c0.2-0.1,0.6-0.6,0.7-0.7c0.1-0.2,0.1-1.4,0-1.6v-0.7c-0.1-0.2-0.2-0.6-0.2-0.8c0.1-0.7,0.1-1.6,0.3-2.4v-1
	c0.2-0.7,0.1-1.5,0-2.2c-0.1-0.3,0-0.7-0.1-0.9c0-0.1,0-0.3,0-0.4c0-0.4,0-1.8-0.1-2c-0.1-0.2-0.8-0.1-1-0.1
	c-0.2-0.1-0.4-0.3-0.6-0.3c-0.2-0.1-0.5,0-0.8-0.1c-0.1,0-0.3-0.1-0.4,0c-0.2,0.1-0.3,0.3-0.6,0.3c-0.1-0.1-0.2-0.1-0.2-0.1
	c-0.1-0.1-0.1-0.3-0.2-0.4c-0.1-0.1-0.1-0.1-0.2-0.2c-0.7,0-0.9,0.4-1.4,0.7c-0.3,0.2-0.5,0.1-0.9,0.3c-0.3,0.1-0.6,0.2-0.9,0.3
	c-0.1,0-0.2,0-0.3,0.1c-0.6,0.2-1.2,0.6-1.7,0.9c-0.1,0-0.2,0.1-0.3,0.1c-0.4,0.3-1.1,0.6-1.8,0.5c-0.1-0.1-0.2-0.3-0.2-0.4
	c-0.2-0.5,0.1-0.7,0.3-0.8c0.1-0.1,0.2-0.2,0.3-0.2c0.5-0.2,1.4-0.3,1.7-0.7c0.2-0.2,0-0.5,0.1-0.7c0.1-0.2,0.4-0.6,0.5-0.7
	c0.3-0.2,1.2-0.1,1.3-0.5c0,0,0,0-0.1-0.1C37.8,42.1,37.3,42.1,37.1,42.1 M45.1,41.6c-0.5,0.4-1.1,0.6-1.8,0.8
	c-0.3,0.1-0.6,0-0.6,0.3h0.1c0.2,0.1,0.7,0.1,0.9,0c0.5-0.1,1.7-0.6,1.8-1.1C45.4,41.7,45.4,41.6,45.1,41.6 M47.1,38.9
	c-0.1,0.4,0.1,0.8,0,1.2c0,0.1-0.2,0.2-0.2,0.3c0,0.3-0.1,0.7-0.1,1c0.1,0.3,0.2,0.6,0.3,0.9c-0.3,0.3-0.2,0.7-0.1,1.1
	c0.3,0.2,0.8,0.1,1.2,0c0.2-0.1,0.5,0,0.7,0c0.2,0,0.4-0.1,0.6-0.1c0.2-0.1,0.6-0.2,0.9-0.1c0.2,0,0.4,0.1,0.5,0.2
	c0.2,0.1,0.3,0,0.5,0.1c0.1,0.1,0.3,0.2,0.4,0.3c0.3,0.1,0.7,0,0.9-0.1h0.4c0.2-0.1,0.5-0.1,0.8-0.1c0.1,0,0.2,0,0.3,0
	c0.1,0,0.2,0.1,0.3,0.2c0.4,0.1,1.1,0.1,1.4-0.1c0,0,0,0,0-0.1c-0.2-0.1-0.5-0.1-0.8-0.1c-0.3-0.4-0.6-0.7-1-1
	c-0.2-0.2-0.3-0.4-0.5-0.6c-0.1,0-0.1,0-0.2,0c-0.1-0.1-0.1-0.1-0.2-0.2c-0.1-0.1-0.3-0.1-0.4-0.2c-0.1-0.1-0.3-0.2-0.4-0.3
	c-0.1,0-0.2,0-0.3,0c0,0-0.1-0.1-0.2-0.1c-0.1,0-0.3,0.1-0.3,0c-0.1,0-0.1-0.2-0.2-0.2c-0.1,0-0.2,0-0.3,0c-0.2-0.1-0.3-0.2-0.5-0.3
	c-0.1,0-0.2,0-0.3,0c-0.2,0-0.4-0.1-0.5-0.1c-0.2-0.1-0.6-0.4-0.8-0.6c-0.1-0.1-0.1-0.1-0.2-0.2c-0.2-0.1-0.7-0.2-0.9-0.3
	C47.4,39.1,47.5,39,47.1,38.9 M46.9,32.2c-0.1,0.2-0.1,0.3-0.1,0.5c0.4,0.1,0.6,0.5,1,0.5c0-0.1,0-0.1,0-0.2c0-0.1-0.1-0.2-0.1-0.3
	c-0.1-0.2-0.4-0.3-0.5-0.5H46.9z M42.8,32.7v0.1c0.1,0,0.2,0.1,0.3,0.2c0.2,0.1,0.3-0.1,0.4-0.1c0.3,0.1,0.7,0.3,0.8,0.6
	c0.1,0.3,0.1,0.5,0.2,0.7c0.1,0.1,0.2,0.2,0.3,0.3c0.1,0.1,0,0.3,0.1,0.4c0,0.1,0.2,0.2,0.3,0.3h0.2c0-0.1,0-0.2,0-0.3
	c-0.1-0.1,0-0.5,0-0.7c0-0.6,0-1.2,0-1.7c0.1-0.2,0.1-0.8,0-1c0,0-0.1,0-0.2,0c-0.2,0.2-0.5,0.3-0.7,0.5c-0.1,0.1-0.1,0.2-0.2,0.3
	C44,32.6,43.6,32.7,42.8,32.7 M42.6,32.7c0-0.4-0.3-0.4-0.3-0.8c0.1-0.1,0.3-0.3,0.3-0.5c-0.5,0-0.8,0.2-1.2,0.4
	c-0.2,0.1-0.4,0-0.4,0.3c0.1,0,0.2,0.1,0.3,0.1c0.2,0.1,0.4,0,0.6,0.1C42.1,32.4,42.1,32.7,42.6,32.7 M46.3,21.1
	c-0.1,0.1-0.2,0.1-0.2,0.3c0.1,0.1,0.1,0.1,0.4,0.1c0.1-0.1,0.1-0.2,0.1-0.4c0,0,0,0,0-0.1C46.5,21.1,46.4,21.1,46.3,21.1 M46.3,20
	h-0.2c0,0.2-0.1,0.7-0.1,0.9c0.1,0,0.2,0.1,0.4,0.1c0-0.1,0-0.1,0-0.2C46.5,20.6,46.4,20.1,46.3,20 M18.5,17.9
	c-0.3,0.6-0.1,1.3,0.2,1.7c0.2,0.3,0.5,0.5,0.9,0.6H20c0.1,0,0.1,0.1,0.2,0.1c0.3,0.1,0.7,0.1,1,0.2c0.2,0,0.4,0,0.5,0
	c0.3,0.1,0.7,0.2,1.1,0.1c0.3-0.1,0.5-0.2,0.8-0.2v-0.1c-0.3-0.1-0.7-0.2-1.1-0.3c-0.2,0-0.5,0-0.7-0.1c-0.4-0.1-0.8-0.4-1.1-0.6
	c-0.1,0-0.2-0.1-0.3-0.1c-0.3-0.2-0.5-0.4-0.7-0.6c-0.1-0.1-0.2-0.1-0.3-0.2C19,18.4,18.9,18,18.5,17.9 M45.4,16.7h0.3
	c0-0.1,0-0.2,0-0.4c0,0-0.1-0.1-0.1-0.2c0,0-0.1,0.1-0.1,0.1C45.4,16.4,45.4,16.6,45.4,16.7 M20.6,13.3c-0.6,0.4-1.8,0.8-1.8,1.7
	c0.1,0.1,0.2,0.3,0.2,0.5v0.5c0.1,0.2,0.2,0.6,0.3,0.8c0.1,0.2,0.9,0.5,1.1,0.7c0.2,0.1,0.2,0.7,0.5,0.8c0.3,0.2,0.8,0.4,1.2,0.5
	c0.2,0,0.4-0.1,0.6-0.1c0.1,0.1,0.1,0.1,0.2,0.2c0.1,0.1,0.2,0,0.4,0.1c0.1,0,0.2,0.1,0.3,0.1c0.3,0.1,1.4-0.2,1.6-0.3
	c0.3-0.1,0.6-0.3,0.8-0.4c0.1-0.1,0.2-0.2,0.3-0.3c0.2-0.1,0.4-0.1,0.6-0.2c0.1-0.1,0.1-0.3,0.3-0.3c0.2-0.1,0.4-0.1,0.6-0.3
	c0.2-0.2,0.3-0.5,0.4-0.8c0.2-0.4,0.5-0.7,0.2-1.3c-0.1-0.1-0.3-0.1-0.5-0.2c-0.1-0.1-0.3-0.2-0.4-0.3c-0.3-0.1-0.5,0.1-0.7,0.1
	c-0.3,0.1-0.4-0.1-0.6-0.1c-0.1,0-0.3,0.2-0.5,0.1c-0.2-0.1-0.6-0.1-0.8-0.2c-0.1,0-0.2-0.1-0.3-0.2c-0.4,0-0.8,0-1.2,0.1
	c-0.4-0.1-0.7-0.4-1.1-0.5c-0.1,0-0.3,0-0.4,0c-0.2,0-0.5-0.2-0.7-0.3c-0.2-0.1-0.2-0.4-0.4-0.5C20.7,13.3,20.7,13.3,20.6,13.3
	 M22.9,13.2c0,0.1-0.1,0.1-0.1,0.2c0,0,0,0,0,0.1c0.2,0.1,0.4,0.3,0.6,0.3c0.1,0,0.8,0.1,0.8,0.1c0.1,0,0.3-0.1,0.4,0
	c0.3,0.1,0.6,0.1,1,0.1c0-0.1,0-0.1,0-0.2h0v0c-0.1,0-0.3-0.1-0.4-0.1c-0.1,0-0.2,0.1-0.4,0.1C24.2,13.6,23.7,13.2,22.9,13.2
	 M24.9,11.8c-0.1,0-0.2,0-0.3,0c-0.1,0-0.3,0.2-0.4,0.2c-0.3,0.1-0.6-0.2-1-0.2c0,0.1,0,0.1,0,0.2c0.3,0.1,0.6,0.2,0.8,0.3
	c0.3,0.1,0.6,0,0.9,0.1c0.2,0.1,0.4,0.2,0.6,0.3c0.3,0.1,0.5,0.1,0.8,0.2c0.2,0.1,0.2,0.3,0.4,0.4c0.1,0.1,0.2,0.1,0.3,0.1
	c0.5,0.4,0.4,0.5,1.3,0.5c0-0.1,0.1-0.1,0.1-0.3c0,0,0-0.1-0.1-0.2c-0.1-0.1-0.2-0.2-0.3-0.2c-0.3-0.2-0.8-0.2-0.9-0.5
	c-0.1-0.1,0-0.3-0.1-0.4c-0.1-0.2-0.3-0.1-0.5-0.2C26,12,25.6,11.8,24.9,11.8 M45.4,7.1c-0.3,0.2-0.8,0.2-1.3,0.4
	C43.6,7.7,43,7.8,42.4,8C42.2,8,42,8,41.8,8.1c-0.2,0.1-0.4,0.2-0.6,0.3c-0.2,0-0.4,0.1-0.6,0.1c-0.5,0.2-0.6,0.8-1.1,1.1
	c-0.4,0.2-0.8,0.4-1.2,0.5c-0.1,0-0.2,0-0.3,0c-0.4,0.2-0.9,0.3-1.3,0.5c-0.2,0.1-0.4,0.1-0.7,0.2c-0.4,0.1-0.9,0.5-1.3,0.5
	c-0.1,0-0.2-0.1-0.3-0.1c-0.1,0-1.2,0-1.3,0c-0.1,0-0.3,0.1-0.3,0.1c-0.3,0.1-1.3-0.2-1.6-0.2H30c-0.2,0-0.5-0.1-0.7-0.1
	c-0.1,0-0.3,0.1-0.4,0c-0.4-0.1-1.2-0.2-1.7-0.1c0,0.1,0,0.1,0,0.2c0.1,0,0.1,0.1,0.1,0.2c0.2,0.1,0.6,0.2,0.7,0.4
	c0.1,0.1,0.1,0.3,0.2,0.4c0.2,0.1,0.4,0.1,0.6,0.3c0.1,0.1,0.1,0.3,0.3,0.5c0.1,0.1,0.3,0.3,0.4,0.4c0.7,0,1.6-0.6,2.1-0.8
	c0.2-0.1,0.3-0.1,0.6-0.1c0.5-0.1,1.2-0.4,1.7-0.5c0.7-0.2,1.2,0.3,1.9,0.2c0.2-0.1,1.1-0.3,1.3-0.3c0.4,0.1,0.8,0.1,1.1,0.2H39
	c0.2,0,0.5,0,0.8,0c0.1,0,0.1,0,0.2,0c0.1,0,0.2-0.1,0.2-0.1c0.1,0,0.2,0,0.3,0c0,0,0.1-0.1,0.2-0.1c0.2-0.1,0.4,0,0.6-0.1
	c0,0,0.1-0.1,0.1-0.1c0.1,0,0.8-0.1,0.8-0.1c0.1,0,0.3,0.2,0.5,0.1c0.1,0,0.1-0.1,0.2-0.2c0.2-0.1,0.4-0.1,0.5-0.3
	c0.1-0.1,0.1-0.2,0.2-0.3c0.2-0.3,0.6-0.4,0.8-0.8c0-0.2,0-0.3,0-0.5c0,0-0.1-0.1-0.1-0.1c0-0.2,0.1-0.2,0.2-0.3
	c0.1-0.4-0.1-0.9,0.4-0.9c0.1,0.1,0.7,0.1,0.9,0.1c0.2,0.3,0.4,0.5,0.5,0.9c0.1,0.4-0.2,0.6-0.2,0.9c-0.1,0.4,0,0.7,0,1
	c0,0.1-0.1,0.3,0,0.5c0,0,0.1,0,0.1,0c0.1,0.1,0.3,0,0.4-0.1c0.2-0.1,0.4,0.2,0.7,0.1c0,0,0.5-0.3,0.5-0.4c0.2,0,0.3,0,0.4,0
	c0.3,0.1,0.8,0.3,1.1,0.4c0.4,0.1,0.7-0.2,1-0.2c0.4,0.1,0.9,0,1.3-0.2h0.4c0.4-0.1,0.9-0.2,1.4-0.2c0.1-0.1,0.2-0.2,0.3-0.3
	c0.1-0.2,0.1-0.4,0.2-0.5c0.1,0,0.1-0.1,0.2-0.1c0-0.1,0-0.2,0.1-0.3c0.1-0.1,0.2,0,0.3-0.1c0.1-0.1,0.1-0.1,0.2-0.2
	c0-0.3,0-0.9-0.3-1c-0.2-0.1-0.6,0-0.8,0.1C53.2,8.8,53,8.9,52.8,9c-0.3,0.1-0.6,0.1-0.9,0.2c-0.2,0-0.4,0.2-0.6,0.1
	c-0.2-0.1-0.4-0.2-0.6-0.2c-0.2-0.1-0.4,0-0.6,0c-0.3-0.1-0.7-0.2-1-0.3c-0.3-0.2-0.5-0.6-0.8-0.9c0,0-0.1-0.1-0.1-0.1
	c-0.1-0.1-0.1-0.3-0.2-0.4c-0.3-0.2-0.8,0-1.2-0.1c-0.1,0-0.4-0.1-0.5-0.1c-0.1,0-0.2,0.1-0.3,0C45.8,7.2,45.6,7.1,45.4,7.1
	 M18.2,21c-0.1-0.1-0.3-0.3-0.4-0.5v-0.6c-0.1-0.3-0.2-0.6-0.2-0.9c-0.1-0.2,0-0.5-0.1-0.8c0-0.2,0.1-0.5,0-0.8
	c-0.1-0.3,0-0.5,0-0.7c0.1-0.2-0.1-0.5,0-0.7v-0.9c0-0.1,0.1-0.3,0.1-0.4c0.1-0.3,0-0.6,0.1-0.8c0.1-0.4,0.5-0.5,0.8-0.9
	c0.3-0.4,0.7-0.7,1.1-1c0.1-0.1,0.3-0.1,0.4-0.2c0.1-0.1,0.2-0.3,0.3-0.3c0.3-0.2,0.6-0.5,0.9-0.8c0.4,0,1,0.2,1.3,0.2
	c0.2,0,0.5,0,0.8-0.1c0.1,0,0.3-0.2,0.5-0.2c0.2,0,0.3,0,0.5,0c0.1,0,0.3-0.1,0.4-0.1c0.4-0.1,0.7,0.2,1,0.1c0.1,0,0.3,0,0.5-0.1
	c0.3-0.1,0.7-0.3,1.1-0.2c0.2,0,0.5,0,0.7,0c0.6,0.1,1.2,0.1,1.8,0.2c0.4,0.1,0.9-0.1,1.2,0c0.3,0,0.7,0,0.9,0
	c0.6,0.1,1.5,0.1,2.1,0c0.3-0.1,0.6,0.1,1,0c0.5-0.1,1.2-0.2,1.8-0.3c0.3-0.1,0.5-0.3,0.8-0.4c0.4-0.2,0.8-0.2,1.2-0.4
	c0.2-0.1,0.3-0.5,0.5-0.6c0.1-0.1,0.2-0.1,0.3-0.2c0.1-0.1,0.2-0.3,0.3-0.3c0.1,0,0.1,0,0.2,0c0.1,0,0.1-0.1,0.1-0.2
	c0.1-0.1,0.5-0.4,0.6-0.4c0.4-0.2,0.8-0.2,1.2-0.3c0.3-0.1,0.6-0.3,0.8-0.4c0.3-0.1,0.6,0,0.9-0.1c0.2-0.1,0.4-0.2,0.6-0.3
	c0.3-0.1,0.5-0.1,0.8-0.1c0.3-0.1,0.8-0.2,1.2-0.1c0.4,0.1,0.8,0.2,1.2,0.3c0.5,0.1,1,0,1.3,0.3c0,0.1,0.1,0.2,0.1,0.3
	C49,6.9,49.1,7,49.1,7c0.2,0.3,0.3,0.6,0.5,0.9c0.1,0.1,0.9,0.3,1.1,0.4h0.4c0.2,0.1,0.3,0.3,0.5,0.3c0.4,0.1,1-0.3,1.2-0.4
	C53,8,53.3,8,53.5,7.9c0.1-0.1,0.1-0.2,0.2-0.3C54,7.2,54.5,7,55.1,7.1c0.2,0.3,0.3,0.5,0.3,0.9c0.1,0.1,0.3,0.2,0.4,0.3
	c0,0.1,0,0,0,0.1c-0.1,0.2-0.3,0.2-0.4,0.4c-0.1,0.3,0.1,0.5,0,0.8c0,0.1-0.2,0.2-0.2,0.3c-0.1,0.3,0.1,0.5,0.1,0.6
	c0,0.2-0.2,0.4-0.2,0.7c0.3,0,0.4-0.1,0.7-0.2c0.3,0,0.5,0,0.8,0c0.1,0,0.2-0.2,0.4-0.1c0.2,0,0.7,0.2,0.8,0.3
	c0.1,0,0.1,0.1,0.2,0.2c0.2,0,0.3,0.1,0.5,0.1c0.3,0.1,0.6,0.4,0.9,0.6c0.5,0.3,1.1,0.3,1.4,0.8c0.3,0.6,0.2,1.3,0.4,2.1v0.4
	c0.1,0.6,0.3,1.2,0.5,1.8c0.1,0.2,0.1,0.6,0.1,0.8v0.5c0,0.2,0.1,0.7,0.1,0.9c0,0.1-0.1,0.3,0,0.4c0,0.1,0.1,0.3,0,0.4
	c0,0.2-0.1,0.4-0.2,0.5c0,0.2,0,0.4,0,0.6c-0.1,0.4-0.5,1-0.3,1.7c0.2,1,0.1,2.3,0.4,3.3v0.6c0,0.4,0,0.8,0.1,1.1v0.7
	c0.1,0.3,0,0.9,0.1,1.2c-0.1,0.4-0.2,0.9-0.2,1.4V32c-0.2,0.8-0.2,2.2,0,3c0,0.7,0,1.4,0,2.1c0.2,0.8,0.2,1.7,0.4,2.5
	c0.1,0.5,0,1.1,0.1,1.6c0,0.1,0,0.3,0,0.3c-0.1,0.3,0.1,0.5,0,0.7c0,0.2-0.1,0.5-0.1,0.7c0,0.2,0.1,0.5,0.1,0.8c0,0.2,0,0.4,0,0.6
	c0.1,0.5,0.2,1.2,0.1,1.8c-0.1,0.3,0,0.7,0,0.9c0,0.5,0.1,1,0.1,1.5c0,0.2,0,0.3,0,0.5c0,0.2,0.1,0.6,0.1,0.9
	c-0.1,0.4-0.1,0.8,0,1.2v0.4c0,0.1,0.1,0.3,0.2,0.5v0.8c0.2,0.7-0.1,1.5,0.1,2.3v0.3c0.2,0.7,0.2,1.3,0.2,2c0,0.3,0,0.7-0.1,0.9
	c0,0.2,0,0.4,0,0.5c-0.1,0.2-0.5,0.5-0.6,0.7c-0.1,0.2-0.1,0.5-0.2,0.7c-0.1,0.2-0.3,0.3-0.4,0.5c0,0.1,0,0.2-0.1,0.3
	c-0.1,0.1-0.3,0.2-0.4,0.3c-0.1,0.1-0.1,0.2-0.2,0.3c-0.2,0.2-0.4,0.3-0.7,0.5c-0.3,0.2-0.4,0.6-0.8,0.7c-0.1,0-0.3,0.1-0.4,0.1
	c-0.2,0.1-0.4,0.2-0.6,0.3c-0.2,0.1-0.3,0.1-0.5,0.2c-0.1,0.1-0.1,0.1-0.2,0.2c-0.3,0.2-0.7,0.3-1,0.5c-0.2,0.1-0.3,0.2-0.5,0.3
	h-0.5c-0.8,0.2-1.7,0-2.6,0.2c-0.3,0-0.6,0-0.9,0c-0.1,0-0.2-0.1-0.3,0c0,0-0.1,0.1-0.2,0.1c-0.3,0-0.6,0-0.9,0
	C50,65,49.2,65,48.3,65.1c-0.1,0-0.5,0-0.6-0.1c-0.1,0-0.3,0-0.4,0c-0.1,0-0.6-0.1-0.7-0.1c-0.4-0.1-0.8,0.1-1.2,0
	c-0.2,0-0.4-0.2-0.7-0.1c-0.7,0.2-1.9,0.3-2.7,0.2c-0.4,0-0.8,0-1.2,0.1c-0.2,0-0.5-0.1-0.7-0.2c-0.2,0-0.7,0.1-0.9,0.1
	c-0.2,0-0.5-0.1-0.8-0.2c-0.3-0.1-0.7,0-0.9-0.1h-0.9c-0.1,0-0.5-0.1-0.6-0.1c0,0-0.2,0.1-0.2,0.1c-0.1,0-0.4-0.1-0.5,0
	c-0.3,0.1-0.8,0-1.1,0c-0.3-0.1-0.7,0-0.9,0c-0.4-0.1-0.7,0.1-1,0.1c-0.2,0-0.4,0-0.6,0c-0.4-0.1-1.1-0.1-1.4,0
	c-0.3,0.1-0.5-0.2-0.9-0.1c-0.7,0.1-1.4,0-2.1,0.1c-0.2,0-0.4,0-0.6,0c-0.9,0.2-2,0.1-2.9,0.3c-0.3,0.1-0.7-0.1-1,0
	c-0.5,0.1-1,0.1-1.4,0c-0.1,0-0.2,0-0.2,0c-0.3,0-0.6,0-0.8-0.1h-0.7c-0.5-0.1-1.4-0.2-2-0.1c-0.3,0.1-0.8-0.1-1,0
	c-0.1,0-0.2,0.3-0.4,0.2c-0.2,0-0.4-0.1-0.6-0.2h-0.4c-0.2-0.1-0.6-0.1-0.8-0.2c-0.2,0-0.4,0-0.7,0c-0.4-0.1-1.1-0.1-1.6-0.2h-0.5
	c-0.5-0.1-0.9-0.5-1.3-0.8c-0.2-0.1-0.5-0.1-0.8-0.3c-0.2-0.1-0.4-0.3-0.6-0.4c-0.2-0.1-0.4-0.1-0.6-0.3c-0.1-0.1-0.1-0.2-0.3-0.3
	c-0.1-0.1-0.3-0.1-0.3-0.2c0-0.1,0-0.1,0-0.2C8,62.1,7.9,62,7.8,61.9c-0.1-0.2-0.1-0.3-0.1-0.5c-0.1-0.3-0.3-0.7-0.4-1.1
	c-0.1-0.3,0.1-0.6,0.1-0.9c-0.1-0.4-0.1-1-0.2-1.4c0-0.5,0-0.9,0-1.4c-0.1-0.4,0-0.9-0.1-1.2v-0.6c-0.1-0.2,0-0.5-0.1-0.8
	c-0.2-0.8-0.3-1.7-0.3-2.5c0-0.1,0-0.4,0.1-0.4v-0.8c0.1-0.3,0.1-0.8,0.1-1.1v-0.5C7,48.3,7,47.7,7,47.4c-0.2-0.9,0-2-0.2-2.9
	c-0.1-0.3,0-0.7,0-0.9c0-0.3,0-0.6,0-0.9c-0.1-0.6-0.1-1.4-0.2-2v-0.4c-0.1-0.3,0-0.6-0.1-0.9c-0.3-1-0.5-2.6-0.3-3.9
	c0.1-0.6-0.2-1.1-0.1-1.8c0.1-0.3,0-0.8,0.1-1.1c0.1-0.4,0.2-0.9,0.3-1.3v-0.7c0.1-0.7,0-1.5,0.2-2.2c0-0.2,0-1.1-0.1-1.3
	c0-0.3,0-0.7,0-1c0-0.6,0-1.4-0.2-1.9c-0.1-0.5,0-1.2,0.1-1.5c0-0.2,0-0.5,0-0.7c0.1-0.6,0.2-1.4,0.3-1.9c0-0.4,0-0.7,0.1-1.1
	c0-0.1,0-0.2,0-0.3C7,17.7,7.1,16.9,7.1,16c0-0.5,0-1,0-1.5c0.1-0.3,0.1-0.7,0.2-0.9v-0.4c0.2-0.8,0.3-1.5,0.5-2.3
	c0.1-0.4,0-0.6,0.1-0.9c0-0.1,0.1-0.2,0.1-0.3V9.5c0-0.1,0.2-0.2,0.2-0.3V9c0.1-0.2,0.2-0.4,0.3-0.6c0.1-0.2,0.1-0.5,0.3-0.6
	c0.1,0.1,0.1,0,0.2,0c0-0.1,0,0,0-0.1c-0.1,0-0.1,0-0.1-0.2C8.9,7.5,8.9,7.3,9,7.3C9.3,7.2,9.5,7.1,9.7,7C9.8,7,9.9,6.8,9.9,6.7
	c0.1-0.1,0.2-0.1,0.3-0.2c0.2-0.1,0.3-0.4,0.5-0.5c0.1-0.1,0.2-0.1,0.3-0.1c0.2-0.1,0.5-0.3,0.8-0.4H12c0.3-0.2,0.6-0.5,0.9-0.7
	c0.1,0,0.2,0,0.3,0c0.1,0,0.2-0.2,0.3-0.2c0.1,0,0.2,0,0.3,0c0.6-0.2,1.3-0.4,1.9-0.6c0.3-0.1,0.8,0,1.1-0.2c0.1,0,0.1,0.1,0.3,0.1
	c0.1,0,0.2-0.1,0.3-0.1c0.6,0,1.2,0,1.8,0c0.5-0.1,1.8,0,2.4,0.1c0.1,0,0.3,0,0.4,0c0.6,0.1,1.3,0.1,1.8,0.3h0.6
	c0.7,0.2,1.7,0,2.5,0.2c0.2,0,0.5,0,0.6,0c0.5-0.1,1,0,1.4-0.1c0.3-0.1,0.6,0,0.9,0c0.6-0.1,1.4-0.1,2-0.2c0.4,0,0.8,0,1.3,0
	c0.3-0.1,0.5,0,0.9,0c0.4-0.1,1.2-0.1,1.6,0c0.3,0,0.7-0.1,0.9-0.2c0.2-0.1,0.5,0,0.6,0c0.5,0,1,0,1.4-0.1h0.5
	c0.2,0,0.6-0.1,0.8-0.1h0.4c0.4-0.1,0.8-0.2,1.2-0.3h0.7c0.1,0,0.5-0.1,0.7,0c0.1,0,0.2,0.1,0.3,0.2c0.2,0.1,0.5,0,0.7,0.1
	c0.3,0,0.5,0,0.8,0c0.3,0.1,0.9,0.1,1.2,0.1c0.3,0,0.7-0.1,1-0.1h1.1c0.9,0.2,1.8,0,2.6,0c0.4,0,0.9,0,1.2,0.1c0.2,0,0.4,0,0.6,0
	c0.3,0,0.8,0.1,1,0.2c0.6-0.1,1.1-0.1,1.7-0.2c0.3,0.1,0.7,0.1,1,0.2c0.2,0.1,0.4,0.2,0.6,0.3c0.3,0.1,0.5,0,0.8,0.1
	c0.2,0.1,0.3,0.2,0.5,0.3c0.3,0.1,0.5,0.1,0.8,0.2c0.2,0.1,0.5,0.3,0.7,0.4c0.2,0.2,0.4,0.5,0.6,0.8c0,0,0.1,0.1,0.2,0.1
	c0.1,0.1,0,0.3,0.1,0.5c0,0.1,0.2,0.2,0.2,0.3c0,0.3,0,0.6,0.1,0.9c0.1,0.1,0.5,0.2,0.5,0.4c0.2,0.5-0.4,0.8-0.5,1
	c0,0.1,0,0.2-0.1,0.2h-0.5c0,0-0.1,0-0.2-0.1c-0.1-0.2-0.3-0.2-0.3-0.4c0-0.2-0.1-0.4-0.1-0.6c0-0.1-0.2-0.3-0.2-0.4
	c-0.1-0.3,0.1-0.5,0-0.7c0-0.1-0.1-0.1-0.1-0.2c0-0.1,0-0.1,0-0.2c0-0.1-0.2-0.1-0.3-0.2C58.2,6.1,58.2,6,58,5.9
	c-0.2-0.2-0.5-0.3-0.7-0.4c-0.1-0.1-0.2-0.2-0.3-0.2c0,0-0.3-0.1-0.3,0c-0.1-0.1-0.1-0.2-0.2-0.2C56.3,5,56,5,55.8,5
	c-0.2-0.1-0.4-0.2-0.6-0.2h-0.6c-0.5-0.1-1.1-0.1-1.5-0.2c-0.4-0.1-1,0-1.3,0.1c-0.2,0-0.6,0-0.8-0.1c-0.3-0.1-0.6,0-0.8,0
	c-0.2-0.1-0.6,0-0.8,0c-0.4,0.1-0.7-0.1-1-0.1c-0.3,0-0.7,0-1.1,0c0,0-0.2,0.1-0.3,0c-0.4-0.1-1,0-1.5-0.1c-0.4-0.1-0.8-0.2-1.1-0.3
	C44,4,43.4,4.3,43,4.3c-0.1,0-0.3,0-0.4,0c-0.2,0-0.5,0.1-0.7,0.1c-0.2,0-0.5,0-0.6,0c-0.6-0.1-1.3,0-1.8,0.1c-0.8,0-1.6,0-2.4,0
	c-0.5,0.1-1,0.2-1.5,0.3H35c-0.6,0-1.2,0-1.6,0c-0.1,0-0.3,0-0.4,0c-0.4,0.1-0.9,0-1.3,0.1c-0.3,0.1-0.9,0.2-1.3,0.1
	c-0.2,0-0.6-0.1-0.9-0.1c-0.5,0.1-1.2,0.1-1.9,0.1c-0.1,0-0.2,0-0.4,0c-0.3-0.1-0.7,0-1.1,0c-0.1,0-0.2-0.1-0.3,0
	c-0.1,0-0.4,0.1-0.5,0.1H25c-0.1,0-0.1,0.1-0.2,0.2c-0.1,0.1-0.5,0-0.6,0c-0.1,0-0.2,0-0.3-0.1c-0.3-0.1-0.8,0-1.1-0.1
	c-0.4,0-0.8,0-1.1,0c-0.2,0-0.5,0-0.8-0.1c-0.3-0.1-0.6-0.2-0.9-0.3h-0.3c-0.6-0.1-1.2-0.1-1.8,0c-0.4,0.1-0.9,0.1-1.4,0.2
	c-0.3,0-0.6,0-0.8,0C15.7,4.9,15.4,5,15.1,5c-0.2,0.1-0.4,0.2-0.6,0.3c-0.4,0.2-0.9,0.2-1.3,0.3c-0.3,0.1-0.7,0.4-1,0.6
	c-0.1,0-0.2,0-0.3,0.1c-0.1,0.1-0.2,0.2-0.3,0.3c-0.1,0.1-0.3,0.1-0.5,0.2c-0.2,0.2-1,0.7-1.1,0.9C10,7.8,10,7.9,10,8
	C9.8,8.3,9.5,8.5,9.3,8.7C9.2,8.9,9.1,9.1,9,9.2C9,9.4,9.1,9.6,9.1,9.6c0,0.1-0.2,0.1-0.2,0.2c-0.1,0.4,0,0.9-0.1,1.3
	c-0.1,0.3-0.2,0.7-0.3,1v0.3c0,0.1-0.1,0.1-0.1,0.2c0,0.2,0,0.4-0.1,0.6c-0.1,0.3-0.2,0.5-0.3,0.8c-0.1,0.4,0.2,0.5,0.2,0.7
	c0.1,0.3-0.1,0.5-0.2,0.7c-0.1,0.4,0,1.1-0.1,1.4v0.4c0,0.1-0.1,0.2-0.1,0.3C7.9,18,8,18.5,7.9,19c0,0.4,0,0.7,0,1.1
	c-0.1,0.5-0.1,1-0.1,1.5c0,0.1-0.1,0.1-0.1,0.2v0.5c-0.1,0.2-0.2,0.6-0.2,0.9c0.1,0.5-0.1,1.2,0.1,1.8c0.1,0.3,0,0.8,0,1.2
	c0,0.2,0,0.4,0,0.6c0,0.5-0.1,1.1-0.2,1.5c0,0.2,0,0.4,0,0.5c0,0.3,0,0.7-0.1,1c0,0.2,0,0.4,0,0.5c0,0.3,0,0.8-0.1,1.1v0.8
	c-0.1,0.3,0,0.8-0.1,1.2c-0.2,0.9-0.2,2.3,0,3.3c0.1,0.4,0,0.9,0.1,1.3v0.7c0.2,0.7,0.1,1.6,0.3,2.2c0,0.2,0,0.4,0,0.7
	c0,0.4,0,0.9,0,1.3c0,0.2,0,0.3,0,0.5c-0.1,0.4,0,1.7,0.1,2.2c0.1,0.4,0,0.8,0.1,1.1v0.5c0.1,0.4,0,1,0,1.3c-0.1,0.3,0,0.7,0,0.9
	c0.1,0.3,0,0.7-0.1,0.9c-0.1,0.2,0.1,0.5,0,0.6c0,0,0,0-0.1,0c-0.1,0.3,0,0.7,0.1,0.9c0,0.2,0,0.4,0,0.6c0.1,0.4,0.1,0.9,0.2,1.4
	c0,0.1,0,0.2,0,0.3c0,0.4,0,0.8,0,1.2c0.1,0.4,0.1,0.9,0.2,1.4v0.6c0.1,0.2,0,0.7,0.1,0.9c0.1,0.2,0.2,0.4,0.2,0.7
	c0,0.1,0,0.3,0,0.4c0.2,0.7,0.4,1.4,0.7,1.9c0,0.1,0.1,0.3,0.1,0.4c0.1,0.1,0.6,0.6,0.7,0.7c0.1,0.1,0.3,0.1,0.4,0.1
	c0.6,0.3,1.2,0.7,1.8,0.9c0.2,0,0.4,0.1,0.6,0.1c0.4,0.1,1,0.3,1.4,0.4c0.3,0.1,0.5-0.1,0.7-0.1c0.3,0,0.7,0.1,1,0.2
	c0.2,0,0.5,0,0.7,0c0.2,0,0.4,0.1,0.6,0.2c0.1,0,0.2,0,0.3,0c0.1,0,0.5,0,0.7,0.1c0.4,0.1,0.9,0.2,1.3,0.1c0.1,0,0.2,0.1,0.4,0.1
	c0.2,0,0.5,0,0.6,0c0.5,0,1.1,0,1.6-0.1c0.2,0,0.6,0.1,0.9,0c0.4-0.1,0.8-0.2,1.1-0.3c0.3-0.1,0.7,0,0.9,0c0.1,0,0.2,0,0.3,0.1
	c0.4,0,0.8,0,1,0c0.3-0.1,0.7,0,1,0c0.7-0.2,1.2,0.3,1.8,0.1c0.4-0.1,1,0,1.5-0.2h0.3c0.1,0,0.3-0.1,0.4-0.1c0.1,0,0.1,0,0.2,0
	c0.4,0,0.7,0,1.1,0c0.5-0.1,1.2-0.1,1.6,0c0.4,0.1,0.9,0,1.1,0c0.1,0,0.3,0.1,0.4,0c0.1,0,0.1-0.1,0.3-0.1c0.1,0,0.2,0.1,0.2,0.1
	c0.1,0,0.3,0,0.4,0c0.1,0,0.2,0.2,0.3,0.2c0.1,0,0.1,0,0.2-0.1c0,0,0.9,0,1,0.1c1.2,0.3,3,0.2,4.2,0c0.1,0,0.3,0,0.5,0
	c0.6-0.1,1.3,0,1.8-0.1c0.3-0.1,0.7,0,0.9,0.1c0.3,0.1,0.8,0,1.1,0c0.5,0,0.9-0.1,1.4-0.1c0.6,0,1.3,0.1,1.8-0.1c0.1,0,0.9,0,0.9,0
	c0.1,0,0.2,0.1,0.4,0.1c0.2-0.1,0.6-0.2,0.8-0.2h0.6c0.1,0,0.1-0.1,0.2-0.1c0.1,0,0.5,0.1,0.6,0.1c0.3,0.1,0.6,0,0.8-0.1
	c0.2,0,0.3,0,0.5,0c0.2-0.1,0.5-0.1,0.8-0.2h0.3c0.2,0,0.4-0.2,0.5-0.3c0.1,0,0.2,0,0.3,0c0,0,0.1-0.1,0.1-0.1c0.1,0,0.2,0,0.3,0
	c0.2-0.1,0.4-0.3,0.6-0.4c0.3-0.2,0.7-0.2,1-0.4c0.2-0.1,0.3-0.3,0.5-0.4c0.2-0.1,0.4-0.2,0.6-0.3c0,0,0-0.1,0-0.1
	c0.1-0.1,0.2-0.2,0.3-0.3c0,0,0.1-0.1,0.1-0.2c0.1-0.1,0.4-0.2,0.4-0.3c0.1-0.1,0.1-0.3,0.3-0.4c0.1-0.1,0.3-0.1,0.3-0.2
	c0.1-0.1,0-0.2,0.1-0.3c0-0.1,0.2-0.1,0.2-0.1c0.1-0.1,0.1-0.4,0.2-0.5v-0.5c0-0.2,0.1-0.3,0.1-0.6v-0.5c0.2-0.8,0.2-2.1,0-2.9v-0.4
	c-0.1-0.3-0.1-0.8-0.2-1.2c0-0.1,0-0.2,0-0.3c-0.1-0.4-0.1-1-0.2-1.4c0-0.2,0.1-0.5,0-0.8c0-0.1-0.1-0.4-0.1-0.6c0-0.1,0-0.5,0-0.6
	v-0.6c-0.1-0.3-0.2-0.6-0.1-0.9c0-0.2-0.1-0.7-0.1-1c0-0.1,0.1-0.4,0-0.6c-0.1-0.3,0-0.7,0-1c0,0-0.1-0.2-0.1-0.2
	c0-0.3,0.1-0.7,0.1-0.9c0-0.1,0-0.2,0-0.2c0-0.1,0-0.3,0.1-0.3c0-0.1,0-0.3,0-0.3c0-0.2,0-0.8,0.1-0.9c0-0.1,0-0.2,0-0.2v-0.6
	c0-0.1-0.1-0.4-0.1-0.6c0-0.3,0-0.6,0-1c0-0.2,0-0.4,0-0.6c-0.1-0.3,0-0.5,0-0.7c-0.1-0.4,0-0.8-0.1-1.1V37c0-0.1-0.1-0.3-0.1-0.4
	c0-0.1,0-0.1,0-0.2c0-0.2-0.1-0.4-0.2-0.7c0-0.2,0.1-0.5,0-0.7c-0.1-0.3-0.1-0.7-0.1-1c0-0.2,0-0.3,0-0.5c0-0.2-0.1-0.3,0-0.5
	c0-0.1,0.1-0.1,0.1-0.2c0.1-0.4-0.2-0.8-0.1-1.1c0.1-0.5,0.3-1.5,0.2-2c-0.2-0.9,0-1.9-0.2-2.7c-0.1-0.4,0.2-0.7,0.1-1.2
	c-0.1-0.5-0.2-1-0.3-1.4c-0.1-0.3,0.2-0.8,0.1-1.1c-0.1-0.3-0.1-0.6-0.2-0.8c0-0.1-0.1-0.2-0.2-0.3c0-0.1,0-0.2,0-0.3
	c0-0.1-0.1-0.3-0.1-0.5c0-0.2,0.1-0.4,0.1-0.6c0.8-0.5,0.9-1.7,0.6-2.8v-0.4c-0.1-0.3-0.1-0.7-0.2-1v-0.5c-0.1-0.3-0.2-0.7-0.3-1
	c-0.1-0.5-0.1-1.1-0.4-1.5c-0.1-0.2-0.7-0.7-0.9-0.7c-0.1,0-0.3,0.1-0.4,0c0,0,0-0.1-0.1-0.1c-0.1-0.1-0.3-0.3-0.4-0.3
	c-0.2-0.1-0.3,0-0.4-0.1c-0.8-0.3-1.6-0.5-2.5-0.3c-0.4,0.1-0.9-0.1-1.3,0.1c-0.4,0.1-0.7,0.4-0.9,0.7c-0.2,0-0.4-0.1-0.7-0.1
	c-0.2,0.1-0.5,0.2-0.8,0.2c-0.1,0-0.2-0.1-0.3-0.1c-0.2-0.1-1.2-0.3-1.4-0.3c-0.2,0-0.4,0-0.6,0.1c-0.2,0.1-0.5,0.1-0.8,0.2
	c-0.2,0-0.2-0.1-0.4-0.1c-0.2,0-0.3,0-0.5,0c-0.2,0-0.4-0.1-0.5-0.2c-0.2-0.1-0.1-0.3-0.4-0.3c-0.1,0.1-0.3,0-0.4,0
	c-0.1,0.1-0.3,0.4-0.2,0.6c0.1,0.2,0.3,0.4,0.4,0.6c0.1,0.3,0.1,0.6,0.2,1c0,0.1,0.1,0.3,0.1,0.4c0,0.2-0.1,0.5-0.2,0.7
	c-0.1,0.3,0.1,0.9,0.2,1c0.1,0.1,0.4,0.1,0.4,0.2c0,0.1,0,0.2,0,0.3c0.1,0.2,0.6,0.4,0.8,0.5c0.5,0.1,0.9-0.2,1.1,0.2
	c0.2,0.2,0.1,0.5,0.1,0.8c-0.6,0.4-0.9,0.2-1.4-0.1c-0.2-0.1-0.5-0.1-0.7-0.1c-0.2-0.1-0.4-0.2-0.7-0.2v0.1
	c-0.3,0.4,0.3,0.7,0.4,0.9c0.1,0.2-0.1,0.4,0,0.7c0.1,0.2,0.2,0.5,0.3,0.7c0.1,0.2,0,0.7,0,0.9c0.1,0.1,0.3,0.2,0.4,0.3
	c0.1,0.1,0.3,0.3,0.4,0.4c0.2,0.1,0.3,0.2,0.5,0.3c0.2,0.1,0.3,0.4,0.6,0.5c0.1,0,0.3,0,0.4,0c0.2,0.1,0.3,0.2,0.6,0.2
	c0.4-0.1,1.2,0.1,1.4-0.3c0.1-0.1,0.1-0.4,0.1-0.5c0.3-0.1,0.8-0.4,1.2-0.4c0.3,0.3,1,0.6,1,1.2c-0.2,0.3-0.3,0.9-0.8,0.9
	c-0.1-0.1-0.2-0.1-0.3-0.1c-0.2,0.3-0.5,0.5-0.8,0.7c-0.3,0-0.7,0-0.9-0.1c-0.1-0.1-0.2-0.2-0.3-0.3c-0.4-0.1-0.7,0.3-1,0.3
	c0,0-0.9-0.2-1-0.3c-0.2-0.1-0.4-0.3-0.6-0.4c-0.2-0.1-0.4-0.1-0.6-0.2c-0.2-0.1-0.2-0.3-0.4-0.3c0,0,0,0-0.1,0
	c-0.1,0.2-0.2,0.5-0.3,0.8v0.5c0,0.1-0.1,0.2-0.2,0.3c-0.1,0.3-0.1,0.6-0.2,0.9c0,0.2,0,0.4,0,0.6c0,0.2-0.2,1.1-0.1,1.4
	c0,0.1,0.1,0.1,0.2,0.2c0.1,0.2,0.2,0.4,0.3,0.6c0.1,0.1,0.3,0.2,0.3,0.3c0.1,0.2-0.1,0.6,0,0.8c0.1,0.1,0.3,0.1,0.4,0.2
	c0.2,0.1,0.4,0.4,0.6,0.6c0.2,0.1,0.4,0.1,0.7,0.2c0.1,0.1,0.3,0.2,0.5,0.3c0.3,0.1,0.9-0.2,1.1-0.3c0.7-0.3,1.7-0.7,2.6-0.5
	c0.1,0.2,0.2,0.3,0.3,0.7c-0.1,0.1-0.1,0.2-0.2,0.3c-0.3,0.2-0.7,0.2-0.7,0.6c0.1,0,0.2,0,0.4,0c0.2,0.1,0.3,0,0.4-0.1
	c0.2-0.1,0.4,0,0.5,0c0.1,0.3,0.5,0.2,0.5,0.6c0,0,0,0.1,0,0.1c-0.2,0.1-0.3,0.3-0.4,0.4c-0.3,0-0.4,0.1-0.6,0.1
	c-0.2,0-0.5,0-0.6-0.1c-0.6-0.1-1.3,0-1.8-0.1c-0.4-0.1-1.1,0.1-1.2,0.3c0,0,0,0.1,0,0.1c0.2,0.1,0.5,0.2,0.7,0.3
	c0.2,0.2,0.1,0.6,0.2,0.9c0.2,0.1,0.4,0.2,0.6,0.3c0.1,0.1,0.2,0.2,0.3,0.3c0.2,0.1,0.5,0.2,0.8,0.3c0.1,0,0.2,0.2,0.3,0.2h0.4
	c0.3,0.1,0.6,0.1,0.9,0.2c0.1,0,0.2,0,0.3,0c0.4,0.1,0.5,0.8,0.4,1.3c-0.2,0.2-0.2,0.2-0.7,0.2c-0.1-0.1-0.3-0.1-0.5-0.1
	c-0.1,0-0.1-0.1-0.2-0.2c-0.3-0.2-0.6-0.2-0.9-0.3c-0.1,0-0.2-0.1-0.2-0.2c-0.2-0.1-0.4-0.1-0.5-0.1h-0.3c-0.1,0-0.1-0.1-0.2-0.2
	c-0.2-0.1-0.5-0.1-0.6-0.3c-0.2-0.1-0.1-0.3-0.4-0.3c-0.1,0.1-0.3,0.2-0.3,0.3c-0.1,0.1,0,0.3-0.1,0.4c-0.1,0.1-0.2,0-0.3,0
	c-0.1,0-0.1,0-0.2,0c-0.3,0-0.6-0.1-0.7-0.3c-0.3-0.4,0.3-0.9,0.4-1.2c0.1-0.1,0-0.3,0-0.5c-0.4-0.2-0.5-0.7-0.9-0.9
	c-0.7-0.2-0.6,1-0.7,1.5c-0.1,0.5,0,1.1,0.3,1.4c0.1,0.2,0.4,0.3,0.5,0.4c0.1,0.2,0.1,0.4,0.3,0.6c0.2,0.2,0.5,0.3,0.7,0.4
	c0.1,0.1,0.1,0.1,0.2,0.2c0.1,0.1,0.2,0,0.3,0.1c0.1,0.1,0.1,0.1,0.2,0.2c0.4,0.3,0.9,0.4,1.4,0.7c0.1,0.1,0.2,0.3,0.4,0.3
	c0.3,0,0.6,0.1,0.9,0.1c0.3,0.1,0.6,0.4,0.9,0.6c0.3,0.2,0.6,0.2,0.8,0.4c0.1,0.1,0.2,0.4,0.3,0.4c0.1,0,0.1,0,0.2,0
	c0.1,0,0.2,0.2,0.3,0.2h0.6c0.2,0.1,0.4,0.2,0.5,0.3c0.1,0.1,0.7,0.3,0.8,0.3h0.4c0.3,0,0.5,0,0.8,0c0.1,0,0.1-0.1,0.2-0.2
	c0.1,0,0.1,0,0.3-0.1c0.1-0.1,0.3-0.2,0.4-0.3c0.2-0.1,0.5,0,0.7,0c0.2,0,0.2,0,0.3,0c0,0.1,0,0.2,0,0.3c0.1,0.2,0.3,0.2,0.3,0.5
	c-0.1,0.4-0.4,0.5-0.7,0.8c-0.1,0.2-0.2,0.4-0.4,0.5c-0.5,0.2-1.1,0-1.6,0.2c-0.2,0.1-0.4,0.2-0.6,0.2c-0.4,0.1-1,0-1.4,0.1
	c-0.1,0-0.4,0.1-0.5,0.1c-0.1,0-0.4-0.1-0.6,0c-0.3,0.1-0.7,0.2-1,0.3c-0.3,0.1-1.4-0.1-1.6-0.2c-0.1,0-0.1-0.1-0.2-0.1
	c-0.2,0-0.3,0-0.5-0.1c-0.2,0-0.5-0.2-0.8-0.1c-0.2,0.1-0.5,0.2-0.7,0.3h-0.5c-0.5,0.1-0.6,0.1-1-0.1c-0.2-0.1-0.4,0.1-0.4,0.2
	c-0.1,0.2,0.1,0.9,0.2,1.1c0,0.1-0.1,0.6-0.1,0.7c0,0.5,0,1,0,1.5c-0.1,0.3,0,0.7,0,1.1c-0.1,0.4,0,0.9,0,1.4c0,0.3,0,0.6,0,0.8v0.5
	c-0.1,0.3-0.1,0.7-0.2,1c0,0.3,0,0.5,0,0.8c-0.1,0.4-0.2,0.8-0.3,1.2c0,0.4,0,0.9-0.1,1.4c-0.1,0.3-0.1,0.6-0.1,0.9
	c0.1,0.1,0.2,0.2,0.3,0.3c0.1,0.1,0.9,0.3,1.2,0.2c0.1,0,0.2-0.1,0.3-0.1c0-0.2,0.1-0.3,0.3-0.4c0.2-0.2,0.8,0,1-0.2
	c0.1-0.1,0.4-0.4,0.4-0.5c0.1-0.1,0-0.3,0.1-0.4c0.1-0.1,0.3-0.2,0.4-0.3c0.1-0.2,0.2-0.4,0.3-0.6c0.2-0.1,0.3-0.3,0.5-0.4h0.2
	c0.2,0.1,0.3,0.2,0.4,0.4c0,0.1,0,0.3,0,0.5c-0.1,0.4-0.2,0.9-0.1,1.4c0.2,0.1,0.4,0.3,0.7,0.4c0.3,0.2,0.4,0.6,0.8,0.8
	c0.4,0.2,0.6-0.3,1-0.2c0.4,0.1,1,0.1,1.5,0c0.1,0,0.2,0.1,0.2,0.1c0.3,0.1,0.8,0,1.1,0c0.1,0.1,0.2,0.2,0.2,0.5c0,0,0,0,0,0.1
	c0.4,0.2,0.7,0.5,1,0.8v0.4c-0.5,0.3-0.1,0.5,0,0.8v0.3c0,0.2,0.1,0.3,0.1,0.6c-0.2,0.1-0.3,0.2-0.4,0.2c-0.2,0-0.4-0.1-0.6-0.1
	c-0.1,0-0.3,0-0.4,0c-0.2-0.1-0.5-0.2-0.8-0.2c-0.3-0.1-1.2-0.1-1.5,0c-0.2,0-0.5,0-0.7-0.1c-0.4,0-0.8,0-1.2,0.1
	c-0.1,0.2-0.4,0.6-0.8,0.5c-0.2,0-0.4-0.2-0.7-0.1c-0.5,0.1-1,0.2-1.5,0.2c-0.1,0.1-0.2,0.2-0.3,0.3c-0.3,0-0.5,0-0.8-0.2
	c-0.1,0-0.1-0.1-0.2-0.2c-0.2-0.1-0.3,0-0.4,0.1c-0.2,0-0.3-0.1-0.4-0.1c-0.1,0-0.2,0-0.3,0.1c-0.2,0-0.3-0.2-0.4-0.2
	c-0.5-0.2-1.1-0.4-1.2-1c-0.1-0.3,0.2-1,0.3-1.2c0-0.1,0.1-0.1,0.2-0.2c0.1-0.2-0.1-0.5-0.2-0.7c-0.1,0-0.4,0-0.5,0
	c-0.1,0.1-0.3,0.1-0.5,0.2c-1.2,0.3-1.9-0.6-2.7-0.8c-0.5-0.2-0.9,0.2-1.3,0.1c-0.5-0.1-0.8-0.4-1.2-0.5c-0.4-0.1-1,0-1.4-0.2
	C38.1,57.1,38.1,57,38,57c-0.1,0-0.2,0-0.2-0.1c0,0-0.2-0.2-0.2-0.2c0-0.1-0.1-0.2-0.1-0.3c-0.1-0.1-0.4-0.3-0.5-0.4
	c-0.1-0.1-0.1-0.3-0.2-0.4c-0.1-0.1-0.5-0.3-0.6-0.4C36.1,55.1,36,55,36,54.9c-0.2-0.1-0.6-0.2-0.8-0.2c-0.2,0.2-0.4,0.3-0.5,0.4
	c-0.1,0.1-0.1,0.2-0.2,0.3c-0.2,0.1-0.8,0-1.1,0.1c-0.2,0.1-0.5,0.2-0.8,0.3H32c-0.2,0-0.4,0.1-0.6,0.1c-0.2,0-0.4,0.1-0.5,0.2
	c-0.1,0-0.2,0-0.3,0c-0.1,0-0.3,0-0.4,0c-0.1,0-0.4,0-0.5,0c-0.3,0-1.3,0.2-1.5,0.1c-0.2-0.1-0.4-0.3-0.5-0.4
	c-0.2-0.1-0.5-0.1-0.7-0.2c-0.5-0.1-1.1,0-1.5,0.1c-0.3,0.1-1.7-0.2-1.9-0.3c-0.6-0.3-1.3-0.7-1.8-1.1c-0.3-0.2-0.6-0.6-0.8-0.9
	c-0.1-0.1-0.2-0.3-0.3-0.4c-0.1-0.1-0.8-0.4-1-0.4c-0.4-0.1-1.1-0.1-1.5-0.1h-0.9c-0.2,0-0.5,0.1-0.8,0c-0.2-0.1-0.5-0.1-0.7-0.2
	c-0.2-0.1-0.3-0.2-0.5-0.3c-0.3-0.1-0.6,0-0.9-0.2c-0.1,0-0.1-0.2-0.2-0.2c-0.2-0.1-0.3-0.1-0.5-0.3c-0.1-0.1-0.1-0.2-0.2-0.2
	c-0.2-0.1-0.6-0.1-0.9-0.2c-0.3-0.1-0.9,0.4-1.3,0.4c-0.2,0-0.3,0-0.4-0.1c-0.1,0-0.2,0-0.3,0c-0.1,0-0.3-0.1-0.4-0.1
	C10,51.3,9.7,51,9.3,51c-0.6-0.1-0.8,0.2-1.4,0.1c-0.1-0.1-0.1-0.1-0.2-0.3c0-0.1,0-0.2,0-0.3c0.1-0.1,0.3-0.5,0.4-0.5
	c0.4-0.3,1-0.2,1.5-0.3c0.3-0.1,0.6-0.3,0.9-0.4c0.1,0,0.3-0.2,0.4-0.2c0.4-0.1,0.7,0,0.9-0.3c0.1-0.2,0-0.3,0-0.5
	c0-0.2,0.2-0.8,0.3-0.9c0.4-0.3,1.1-0.2,1.6-0.4c0.4-0.2,0.8-0.4,1.2-0.5c0.3-0.1,0.6-0.1,0.9-0.3c0.2-0.1,0.4-0.2,0.6-0.2
	c0.1,0,0.1,0,0.2,0.1h0.5c0.1,0,0.2,0.1,0.3,0.1c0.4-0.1,0.8,0,1.2-0.1h0.5c0.8-0.2,1.7-0.2,2.4-0.4c0.8-0.2,1.9-0.4,2.7-0.7
	c0.4-0.1,0.8-0.1,1.1-0.2c0.4-0.2,0.8-0.4,1.2-0.7c0.2-0.1,0.3-0.1,0.5-0.2c0.1-0.1,0.3-0.2,0.4-0.3c0.1,0,0.5-0.1,0.6-0.1h0.4
	c0.4-0.1,0.9-0.3,1.3-0.4c0.3,0,0.6,0,0.9-0.1c0.5-0.1,0.8-0.6,1.4-0.8c0.4-0.1,0.5,0.4,0.9,0.3c0.1,0,0.3-0.1,0.4-0.2
	c0.2-0.1,0.3-0.1,0.5-0.1c0.2-0.1,0.5-0.3,0.7-0.4c0.1-0.1,0.2,0,0.3-0.1c0.4-0.1,0.8-0.3,1.2-0.4c0.1,0,0.2,0,0.3,0
	c0.3-0.1,0.7-0.2,1-0.3c0.3-0.1,0.4,0.2,0.6,0.3c0.2,0.1,0.4,0.1,0.5,0.2c0.1,0.1,0.3,0.2,0.4,0.3c0.1,0,0.2,0,0.3,0.1
	c0.1,0,0.2,0.2,0.3,0.2c0.4,0.1,0.7-0.2,0.9-0.3c0.2-0.1,0.4-0.1,0.5-0.2h0.6c0.2-0.1,0.3-0.2,0.6-0.3c0.4,0.4,0.8,0.1,1.2-0.1
	c0.2-0.1,0.4-0.1,0.5-0.2c0.3-0.1,0.3-0.4,0.4-0.6c0.1-0.1,0.1-0.1,0.2-0.2c0-0.1,0-0.1,0-0.2c0.1,0,0.1-0.1,0.2-0.1
	c0.1-0.2,0.1-0.3,0.2-0.6c0-0.2,0.2-0.5,0.1-0.8c0-0.1-0.1-0.1-0.1-0.3c0.2-0.1,0.1-0.2,0.2-0.4c0.2-0.5,0.1-0.5-0.1-1
	c0-0.1,0-0.2-0.1-0.3c-0.3-0.5-0.8-0.8-1.4-1c-0.1,0-0.3,0-0.4-0.1c-0.4-0.2-0.6-0.6-0.9-0.8c-0.1-0.1-0.4-0.1-0.5-0.2
	c-0.3-0.3-0.3-1.2-0.7-1.3c-0.1-0.1-0.7,0-1-0.1c-0.3-0.1-0.4-0.4-0.8-0.4c-0.2,0.2-0.5,0.5-0.8,0.7c-0.1,0.1-0.1,0.3-0.3,0.3
	c-0.1,0.1-0.2,0-0.3,0.1c-0.2,0.1-0.2,0.3-0.4,0.4c-0.2,0.1-0.4,0.2-0.5,0.4c-0.2,0.2-0.6,0.8-0.8,1c-0.1,0.1-0.3,0-0.4,0.1
	c-0.2,0.1-0.2,0.4-0.5,0.4c-0.2-0.2-0.5-0.5-0.7-0.7c0-0.5,0.4-0.6,0.7-0.8c0.4-0.3,0.6-0.8,1.1-1c0.3-0.2,0.6-0.2,0.7-0.5
	c-0.4,0-0.7,0.3-1,0.4c-0.2,0.1-0.5,0.1-0.7,0.2c-0.2,0.1-0.4,0.2-0.7,0.3c-0.3,0.1-1.5-0.2-1.6-0.3c-0.2-0.1-0.4-0.3-0.6-0.3
	c-0.7,0.1-1.1,0.6-1.7,0.7c-0.2,0-0.3-0.1-0.4-0.2c-0.4-0.2-0.7-0.3-1.1-0.4c-0.3-0.1-0.6-0.1-0.9-0.2c-0.3-0.1-0.7-0.3-1-0.5
	c-0.2-0.1-0.4-0.1-0.6-0.2c-0.1-0.1-0.1-0.2-0.2-0.3c-0.1-0.1-0.2-0.1-0.3-0.2c-0.1-0.1-0.2-0.3-0.4-0.4c-0.3-0.2-0.7-0.3-0.9-0.6
	c-0.1-0.2,0-0.5-0.3-0.5c-0.1-0.1-0.4,0.1-0.6,0c-0.1,0-0.3-0.1-0.4-0.1c-0.1,0-1.1,0.2-1.2,0.2c-0.1,0.1-0.2,0.2-0.3,0.3
	c-0.2,0.1-0.5,0.1-0.6,0.3c0,0.1-0.1,0.2-0.1,0.3V32c0,0.1-0.3,0.2-0.4,0.3c-0.3,0.3-0.5,0.7-0.8,1c-0.2,0.2-0.4,0.2-0.5,0.4
	c-0.3,0.4-0.5,0.9-0.8,1.3c-0.3,0.4-0.7,0.6-1,0.9c-0.3,0.3-0.5,1.1-0.8,1.2c-0.2,0.1-0.7,0-0.9,0.2c-0.1,0.1-0.5,0.4-0.6,0.6
	c-0.1,0.1,0,0.3-0.1,0.4c-0.2,0.2-0.5,0.3-0.8,0.4c-0.2,0.1-0.3,0.2-0.6,0.1c-0.3-0.1-0.7-0.1-0.8-0.4c-0.2-0.2,0.1-0.9,0.3-1
	c0.4-0.3,1.1-0.3,1.4-0.7c0.2-0.1,0.3-0.6,0.4-0.8c0.1-0.1,0.2-0.1,0.3-0.2c0.3-0.5,0.4-0.3,1-0.4c0.2-0.3,0.3-0.2,0.6-0.4
	c0.3-0.2,0.4-0.6,0.6-0.8c0.1-0.1,0.3,0,0.4-0.1c0.1-0.1,0.5-0.7,0.6-0.9c0.4-0.6,1-1.1,1.4-1.8c0.1-0.2,0.2-0.4,0.3-0.6
	c0-0.1,0-0.2,0-0.3c0.1-0.1,0.3-0.3,0.4-0.4c0.2-0.4,0.1-0.6,0.5-0.7c0.1-0.1,0.2,0,0.3-0.1c0.3-0.1,0.6-0.2,0.9-0.3
	c0.1,0,0.2,0,0.3,0c0,0,0.1-0.1,0.2-0.1c0.4-0.2,1-0.3,1.4-0.1c0.1,0.1,0.2,0.2,0.4,0.3c0.2,0.1,0.6,0.2,0.7,0.5
	c0.1,0.2-0.1,0.3-0.2,0.5c0,0,0.1,0.1,0.1,0.1c0.1,0.1,0.4,0.1,0.5,0.2c0.1,0,0.1,0,0.2,0c0.3,0.1,0.5,0.3,0.8,0.4
	c0.2,0.1,0.5,0,0.6,0.1c0.3,0.2,0.3,0.4,0.5,0.7c0.1,0.2,0.7,0.8,0.9,1c0.3,0.2,0.9,0.2,1.3,0.3c0.2,0,0.4,0,0.6,0
	c0.2,0,0.5,0.2,0.8,0.1c0.2-0.1,0.6-0.2,0.9-0.3c0.1,0,0.3-0.2,0.4-0.2c0.4-0.1,0.8,0,1.1,0.1c0.4,0.1,0.7-0.1,0.9-0.3
	c0.2-0.1,0.3-0.1,0.4-0.3c0,0,0-0.1,0-0.2c-0.3,0-0.5,0.2-0.7,0.2c-0.3,0.1-0.6-0.1-0.9,0c-0.3,0.1-0.8,0.1-1.1,0c0,0,0-0.1-0.1-0.1
	c-0.1-0.1,0-0.3,0-0.4c0.2-0.1,0.3-0.4,0.5-0.4c0.2-0.1,0.5,0,0.7-0.1c0.1-0.2,0-0.3,0.3-0.3c0.1-0.1,0.4,0,0.5,0.1
	c0.3,0,0.6,0,0.8,0.1c0.3,0.1,0.6,0.2,1,0.3c0,0,0-0.1,0-0.1c0.1-0.2-0.2-0.6,0.2-0.8c0.1-0.1,0.2,0,0.4-0.1
	c0.9-0.2,1.2,0.6,2.1,0.4c1.1-0.3,2.4-0.4,3.4-0.7c0.3-0.1,0.6-0.1,0.8-0.2c0.1-0.1,0.2-0.3,0.3-0.4c0-0.1,0-0.2,0-0.3
	c0-0.1,0.1-0.1,0.2-0.2c0.2-0.3,0.3-0.6,0.3-1c-0.1-0.1-0.2-0.4-0.4-0.5c-0.6-0.3-1.4,0.3-1.8,0.4c-0.2,0.1-0.4,0.1-0.6,0.2
	c-0.1,0.1-0.2,0.3-0.4,0.4c-0.2,0.1-0.5,0-0.7,0c-0.4,0.1-0.7,0.3-1.2,0.4c-0.5,0.1-1.3-0.5-1.7-0.6c-0.2-0.1-0.5,0.1-0.7,0
	c-0.1,0-0.2-0.1-0.3-0.1c-0.1,0-0.2,0.1-0.3,0.1c-0.3,0-0.9,0.1-1.2,0.1c-0.3,0-0.5-0.2-0.8-0.1c-0.2,0.1-0.6,0.6-0.9,0.4
	c-0.1,0-0.4-0.4-0.5-0.5c0,0,0-0.1,0-0.2c0.1-0.1,0.2-0.2,0.3-0.2c0.2-0.1,0.5,0.1,0.8,0c0.1,0,0.2-0.1,0.3-0.1
	c0.2,0,0.5,0.1,0.8,0.1c0.2,0,0.5,0,0.7,0c0.8-0.3,1.9-0.1,2.7,0.1c0.4,0.1,0.4-0.3,0.8-0.3c0.1,0.1,0.9,0.1,1.1,0.1
	c0.2-0.1,0.3-0.3,0.5-0.4c0.1,0,0.3,0,0.4-0.1c0.4-0.1,0.8-0.3,1.1-0.6c0.2-0.1,0.2-0.5,0.3-0.6c0.1-0.1,0.6-0.2,0.7-0.3
	c0.1-0.2,0.2-0.3,0.3-0.4c0.3-0.9,0-2.7-0.1-3.5c0-0.1,0-0.2,0-0.3c0-0.3-0.1-0.4,0-0.7c0-0.2,0.1-0.4,0.1-0.6c-0.1,0-0.1,0-0.2,0
	c-0.1,0.1-0.3,0.1-0.4,0.3c-0.1,0.2-0.2,0.5-0.4,0.6c-0.2,0.1-0.4,0.2-0.6,0.4c-0.1,0.2-0.2,0.3-0.3,0.5c-0.1,0.1-0.2,0.2-0.3,0.3
	c-0.1,0.1-0.1,0.1-0.1,0.2c-0.1,0.1-0.3,0.2-0.4,0.3c-0.1,0.2-0.3,0.4-0.4,0.5c-0.3,0.2-0.6,0.2-0.8,0.5c-0.1,0.1-0.1,0.2-0.2,0.3
	c-0.1,0.1-0.2,0.1-0.3,0.2c-0.2,0.2-0.6,0.8-0.8,0.9c-0.1,0.1-1.1,0.2-1.3,0.2c-0.1-0.1-0.3-0.1-0.3-0.3c-0.2-0.3,0.2-0.7,0.3-0.8
	c0-0.1,0-0.1,0.1-0.2c0.1-0.2,0.7-0.5,0.9-0.5h0.3c0.2-0.1,0.3-0.4,0.4-0.4c0.1-0.1,0.2,0,0.3,0c0.2,0,0.3-0.2,0.4-0.3
	c0.7-0.6,1.3-1.3,2-1.9c0.1-0.1,0.3-0.2,0.4-0.3c0.4-0.3,1.2-1.5,1.4-2.1c0.2-0.5,0-1.1,0.2-1.7c0.2-0.8,0.2-1.5,0-2.3
	c0,0-0.1,0-0.1,0c-0.2-0.1-0.4,0.5-0.7,0.6h-0.3c-0.1,0-0.4,0.1-0.5,0.2c0,0-0.1,0.1-0.1,0.1c-0.2,0.1-0.5,0.1-0.7,0.2
	c-0.2,0.1-0.3,0.3-0.5,0.4c-0.2,0.1-0.4,0.3-0.6,0.4c-0.2,0.1-0.7,0.2-0.9,0.1c-0.4-0.1-0.5-1-0.2-1.2c0.2-0.1,0.4,0,0.6-0.1
	c0.3-0.1,0.6-0.1,0.8-0.3c0.4-0.1,0.7-0.5,1-0.7c0.3-0.1,0.8-0.2,0.9-0.5c0.1-0.2-0.3-0.3-0.5-0.4c-0.1-0.1-0.1-0.1-0.1-0.2
	c-0.1-0.1-0.4-0.3-0.7-0.3c-0.4,0.1-0.8,0.3-1.2,0.4c-0.2,0.1-0.5-0.1-0.7,0c-0.2,0-0.7,0.2-1,0.1c-0.1,0-0.3-0.2-0.4-0.2
	c-0.3-0.1-0.7,0.1-0.9,0.2c-0.4,0.1-0.6-0.1-1,0c-0.3,0.1-0.7,0.1-1.1,0.2c-0.5,0.1-1.1,0-1.5-0.1c-0.2,0-0.4,0.1-0.5,0.1
	c-0.1,0-0.1,0-0.2,0c-0.4,0.1-0.6,0.4-0.9,0.5c-0.3,0.1-0.5,0.1-0.8,0.2c-0.3,0.1-0.5,0.2-0.8,0.3c-0.3,0.1-0.6,0-0.8,0.3
	c-0.1,0.1-0.1,0.2-0.1,0.4c0.4,0.3,0.5,1.1,0.2,1.5c-0.1,0.2-0.4,0.3-0.6,0.6c0,0.1,0,0.2,0,0.3c-0.1,0.3-0.2,0.7-0.3,0.9
	c-0.1,0.2,0,0.3-0.1,0.5c-0.5,0.8-1.3,1.4-2.1,2c-0.3,0.2-0.4,0.6-0.8,0.8c-0.1,0-0.3,0-0.4,0.1c-0.1,0-0.2,0.1-0.4,0.2h-0.8
	c-0.4,0.1-0.9,0.1-1.3,0.1c-0.1,0-0.3,0-0.4,0c-0.2,0-0.5,0-0.7,0c-0.6,0.1-2.1,0-2.6-0.2c-0.1,0-0.1-0.1-0.2-0.2
	C18.8,21,18.5,20.9,18.2,21"/>
</svg>
